<svg width="126" height="26" viewBox="0 0 126 26" fill="none" xmlns="http://www.w3.org/2000/svg">
<g clip-path="url(#clip0_25_4973)">
<path d="M40.5254 20.5357C39.1075 20.5357 37.8818 20.2267 36.8575 19.6086C35.8287 18.9905 35.037 18.1261 34.4824 17.0153C33.9277 15.9046 33.6504 14.6102 33.6504 13.1366C33.6504 11.663 33.9277 10.3731 34.4824 9.26236C35.037 8.15159 35.8287 7.28716 36.8575 6.66908C37.8863 6.05099 39.1075 5.74194 40.5254 5.74194C41.9433 5.74194 43.1689 6.05099 44.1933 6.66908C45.222 7.28716 46.0138 8.15159 46.5684 9.26236C47.1231 10.3731 47.4004 11.6675 47.4004 13.1366C47.4004 14.6057 47.1231 15.9001 46.5684 17.0153C46.0138 18.1261 45.222 18.9905 44.1933 19.6086C43.1645 20.2267 41.9433 20.5357 40.5254 20.5357ZM40.5254 18.0096C41.4245 18.0231 42.1759 17.8305 42.7708 17.4274C43.3702 17.0288 43.8175 16.4555 44.1172 15.7209C44.4169 14.9864 44.5645 14.122 44.5645 13.1366C44.5645 12.1512 44.4169 11.2958 44.1172 10.5702C43.8175 9.84909 43.3702 9.28475 42.7708 8.88165C42.1715 8.48303 41.4245 8.27252 40.5254 8.25908C39.6263 8.24565 38.8749 8.43824 38.2799 8.84134C37.6806 9.24444 37.2333 9.81326 36.9336 10.5478C36.6339 11.2823 36.4863 12.1468 36.4863 13.1321C36.4863 14.1175 36.6339 14.9729 36.9336 15.6985C37.2333 16.4241 37.6806 16.984 38.2799 17.3871C38.8793 17.7902 39.6263 17.9962 40.5254 18.0096ZM45.5307 20.5357L41.3932 16.4107L43.0482 14.7535L47.1678 18.8785L45.5307 20.5357Z" fill="white"/>
<path d="M52.1865 20.5535C51.3545 20.5535 50.6746 20.4102 50.1468 20.128C49.6235 19.8459 49.212 19.4876 48.9212 19.0531C48.6305 18.6187 48.4202 18.1663 48.295 17.696C48.1697 17.2257 48.0937 16.7957 48.0669 16.4106C48.04 16.0209 48.0266 15.7387 48.0266 15.564V9.58472H50.7462V14.6145C50.7462 14.8564 50.7596 15.1699 50.7865 15.5461C50.8133 15.9224 50.8938 16.3031 51.0325 16.6838C51.1711 17.0645 51.3948 17.3825 51.7079 17.6423C52.021 17.8976 52.4638 18.0274 53.0319 18.0274C53.26 18.0274 53.506 17.9916 53.7699 17.9199C54.0339 17.8483 54.2799 17.7094 54.508 17.4989C54.7361 17.2884 54.9285 16.9839 55.0761 16.5808C55.2237 16.1777 55.2997 15.6447 55.2997 14.9863L56.8384 15.7163C56.8384 16.5584 56.6684 17.3466 56.324 18.0857C55.9841 18.8202 55.4697 19.4159 54.7808 19.8727C54.0965 20.3251 53.2287 20.5535 52.1865 20.5535ZM55.6352 20.24V16.7106H55.2997V9.5892H57.9969V20.2445H55.6307L55.6352 20.24Z" fill="white"/>
<path d="M62.5728 20.5357C61.8124 20.5357 61.1638 20.3879 60.636 20.0968C60.1082 19.8057 59.7056 19.4115 59.4328 18.9233C59.1599 18.4351 59.0258 17.8932 59.0258 17.302C59.0258 16.8093 59.1018 16.3569 59.2539 15.9493C59.406 15.5418 59.6475 15.1835 59.9874 14.8699C60.3274 14.5564 60.7792 14.2966 61.3517 14.0861C61.7453 13.9428 62.215 13.8129 62.7607 13.7009C63.3064 13.589 63.9237 13.4815 64.6125 13.3785C65.3014 13.2754 66.0618 13.1635 66.8893 13.0381L65.9231 13.571C65.9231 12.9395 65.771 12.4782 65.4713 12.1826C65.1672 11.887 64.6617 11.7392 63.955 11.7392C63.5614 11.7392 63.1499 11.8332 62.7249 12.0258C62.3 12.2184 62.0003 12.5543 61.8303 13.0425L59.406 12.2722C59.6743 11.3898 60.1798 10.6732 60.9223 10.1223C61.6648 9.57139 62.6757 9.2937 63.955 9.2937C64.8943 9.2937 65.7263 9.43703 66.4554 9.72815C67.1845 10.0193 67.7347 10.5164 68.1104 11.2286C68.3207 11.6227 68.4459 12.0169 68.4862 12.411C68.5264 12.8052 68.5443 13.2441 68.5443 13.7323V20.2446H66.2004V18.0544L66.5359 18.5068C66.0171 19.2234 65.4579 19.743 64.8585 20.061C64.2592 20.379 63.4988 20.5402 62.5773 20.5402L62.5728 20.5357ZM63.1409 18.4262C63.6329 18.4262 64.0489 18.3411 64.3889 18.1664C64.7288 17.9917 64.9972 17.7946 65.1985 17.5707C65.3998 17.3468 65.534 17.1586 65.6055 17.0108C65.7442 16.7197 65.8247 16.3838 65.8471 15.9986C65.8694 15.6134 65.8829 15.2909 65.8829 15.0356L66.6701 15.2327C65.8739 15.3626 65.2298 15.4746 64.7378 15.5642C64.2457 15.6537 63.8476 15.7344 63.5435 15.806C63.2393 15.8777 62.9754 15.9583 62.7473 16.0434C62.4834 16.1509 62.2732 16.2629 62.1121 16.3838C61.9511 16.5047 61.8348 16.6391 61.7588 16.7824C61.6827 16.9257 61.6469 17.087 61.6469 17.2661C61.6469 17.508 61.7096 17.7185 61.8303 17.8932C61.9511 18.0679 62.1255 18.2022 62.3492 18.2918C62.5728 18.3859 62.8368 18.4307 63.1454 18.4307L63.1409 18.4262Z" fill="white"/>
<path d="M69.9398 20.2401V9.58476H72.3239V13.1141H72.6594V20.2356H69.9398V20.2401ZM77.2084 20.2401V15.2103C77.2084 14.9684 77.195 14.6549 77.1682 14.2786C77.1414 13.9024 77.0608 13.5217 76.9222 13.141C76.7835 12.7603 76.5599 12.4423 76.2468 12.1825C75.9336 11.9272 75.4908 11.7973 74.9227 11.7973C74.6946 11.7973 74.4486 11.8332 74.1847 11.9048C73.9208 11.9765 73.6748 12.1153 73.4467 12.3258C73.2185 12.5319 73.0262 12.8364 72.8786 13.2395C72.731 13.6426 72.6549 14.1712 72.6549 14.8385L71.1162 14.1084C71.1162 13.2664 71.2862 12.4781 71.6306 11.7391C71.9706 11.0046 72.485 10.4089 73.1738 9.95203C73.8626 9.49518 74.7259 9.27124 75.7681 9.27124C76.6001 9.27124 77.28 9.41456 77.8078 9.69673C78.3312 9.97891 78.7427 10.3372 79.0334 10.7717C79.3242 11.2061 79.5344 11.6585 79.6596 12.1288C79.7849 12.5991 79.8609 13.029 79.8878 13.4187C79.9146 13.8084 79.928 14.0905 79.928 14.2652V20.2445H77.2084V20.2401Z" fill="white"/>
<path d="M80.1652 11.6585V9.58921H87.729V11.6585H80.1652ZM87.729 20.24C86.9954 20.3789 86.2708 20.4371 85.5686 20.4237C84.8618 20.4058 84.2311 20.2803 83.6765 20.0474C83.1218 19.8145 82.7014 19.4383 82.4106 18.9188C82.1467 18.4306 82.008 17.9379 81.9991 17.4362C81.9857 16.9346 81.9812 16.3613 81.9812 15.7253V6.62866H84.6605V15.5641C84.6605 15.9806 84.665 16.3523 84.6739 16.6838C84.6829 17.0152 84.75 17.2795 84.8752 17.4766C85.1123 17.8528 85.488 18.0543 86.0069 18.0902C86.5258 18.1215 87.0983 18.0946 87.729 18.0095V20.24Z" fill="white"/>
<path d="M88.9501 20.2401V9.58477H91.3163V12.187L91.0613 11.8511C91.2 11.4838 91.3834 11.1479 91.6115 10.8433C91.8396 10.5433 92.1259 10.2924 92.4569 10.0954C92.7119 9.9386 92.9937 9.81319 93.2934 9.72361C93.5975 9.63404 93.9062 9.58029 94.2282 9.5579C94.5503 9.5355 94.8723 9.54446 95.1944 9.58477V12.0885C94.8992 11.9944 94.5547 11.9631 94.1656 11.9944C93.7764 12.0258 93.4231 12.1153 93.1055 12.2676C92.7879 12.411 92.524 12.6035 92.3093 12.8454C92.0946 13.0873 91.9291 13.3694 91.8173 13.6919C91.7054 14.0189 91.6518 14.3861 91.6518 14.7937V20.2401H88.9545H88.9501Z" fill="white"/>
<path d="M100.517 20.5358C99.4482 20.5358 98.5089 20.294 97.6993 19.8147C96.8896 19.3355 96.2634 18.6726 95.8117 17.8261C95.3599 16.9796 95.1362 16.0077 95.1362 14.9103C95.1362 13.813 95.3644 12.8187 95.8251 11.9766C96.2858 11.1301 96.9165 10.4717 97.7261 9.99697C98.5357 9.52221 99.4616 9.28931 100.513 9.28931C101.564 9.28931 102.526 9.53117 103.335 10.0104C104.145 10.4897 104.78 11.1525 105.232 11.999C105.684 12.8456 105.912 13.8175 105.912 14.9148C105.912 16.0121 105.684 16.993 105.227 17.8395C104.771 18.686 104.136 19.3444 103.326 19.8237C102.517 20.2984 101.577 20.5403 100.513 20.5403L100.517 20.5358ZM100.517 18.0321C101.376 18.0321 102.02 17.741 102.445 17.1587C102.87 16.5765 103.08 15.8285 103.08 14.9148C103.08 14.0011 102.866 13.2128 102.436 12.644C102.007 12.0797 101.367 11.7975 100.522 11.7975C99.9358 11.7975 99.4571 11.9274 99.0814 12.1916C98.7057 12.4559 98.4284 12.8187 98.2494 13.2845C98.0705 13.7503 97.9766 14.2922 97.9766 14.9103C97.9766 15.8643 98.1913 16.6213 98.6207 17.1856C99.0501 17.7499 99.6808 18.0276 100.517 18.0276V18.0321Z" fill="white"/>
<path d="M109.423 20.24L105.563 9.58472H108.242L110.765 16.9615L113.288 9.58472H115.967L112.107 20.24H109.428H109.423Z" fill="white"/>
<path d="M121.147 20.5357C120.055 20.5357 119.098 20.3028 118.266 19.8325C117.434 19.3623 116.786 18.7128 116.316 17.8887C115.846 17.0646 115.614 16.1195 115.614 15.0536C115.614 13.8891 115.842 12.8768 116.302 12.0169C116.763 11.1569 117.394 10.4851 118.204 10.0103C119.013 9.53556 119.939 9.2937 120.99 9.2937C122.108 9.2937 123.057 9.55796 123.839 10.082C124.622 10.606 125.199 11.3495 125.575 12.3035C125.951 13.2575 126.08 14.3772 125.969 15.6672H123.321V14.6818C123.321 13.5979 123.146 12.8141 122.802 12.3394C122.457 11.8646 121.894 11.6227 121.111 11.6227C120.198 11.6227 119.528 11.9004 119.098 12.4558C118.669 13.0112 118.454 13.8308 118.454 14.9192C118.454 15.9135 118.669 16.6794 119.098 17.2214C119.528 17.7633 120.158 18.0365 120.995 18.0365C121.518 18.0365 121.97 17.9201 122.346 17.6916C122.721 17.4632 123.008 17.1318 123.204 16.6973L125.884 17.4677C125.481 18.4396 124.85 19.1965 123.987 19.7385C123.124 20.276 122.18 20.5447 121.156 20.5447L121.147 20.5357ZM117.618 15.6627V13.6696H124.671V15.6627H117.618Z" fill="white"/>
<path d="M13.996 25.8612C10.7755 26.13 7.45202 25.1536 4.92925 23.1112C1.84735 20.7015 0 16.8362 0 12.9262H0.026838C0.474138 12.9351 0.921438 12.9396 1.36427 12.9396C1.96365 12.9396 2.5675 12.9396 3.16689 12.9396H3.26082C3.68128 12.9396 4.10622 12.9396 4.52668 12.9396C4.49984 15.8151 6.07434 18.6412 8.53896 20.1148C9.75115 20.9255 11.1601 21.3107 12.596 21.3689C12.5915 21.4674 12.587 21.566 12.587 21.66C12.587 23.2366 13.1148 24.6922 13.996 25.8567V25.8612ZM25.6214 10.2478C25.013 7.15287 23.1388 4.37148 20.6205 2.4993C18.1604 0.676385 14.9935 -0.259705 11.9429 0.0627761C11.9429 0.439004 11.9429 0.81971 11.9429 1.19594C11.9429 1.70653 11.9429 2.2216 11.9429 2.7322C11.9429 3.30102 11.9429 3.87432 11.9429 4.44314C12.7615 4.47001 13.58 4.54615 14.3986 4.62229C18.1157 5.22247 21.2065 8.59956 21.3631 12.3842C21.4391 13.2576 21.3631 14.1355 21.1484 14.9775C22.7363 15.3806 24.105 16.3391 25.0354 17.638C25.9345 15.3 26.1447 12.6933 25.6214 10.2478ZM19.6544 17.8082C17.3955 17.8082 15.566 19.64 15.566 21.9019C15.566 24.1637 17.3955 25.9956 19.6544 25.9956C21.9132 25.9956 23.7427 24.1592 23.7427 21.9019C23.7427 19.6445 21.9088 17.8082 19.6544 17.8082ZM3.11321 10.409C2.9164 10.2971 2.78221 10.0865 2.78221 9.84917C2.78221 9.71032 2.82694 9.58043 2.90298 9.47294C2.71064 9.36993 2.5183 9.27139 2.32596 9.16838C2.2365 9.28483 2.09336 9.36097 1.93681 9.36097C1.8563 9.36097 1.78025 9.33857 1.70869 9.30274C1.58344 9.52669 1.43583 9.7372 1.32401 9.9701C1.48056 10.0865 1.58344 10.2747 1.58344 10.4852C1.58344 10.6151 1.54319 10.7405 1.47609 10.839C1.35979 11.0137 1.16298 11.1257 0.93933 11.1257C0.71568 11.1257 0.509922 11.0047 0.398097 10.8256C0.335475 10.727 0.295218 10.6061 0.295218 10.4807C0.295218 10.1269 0.58149 9.83573 0.93933 9.83573C1.0601 9.83573 1.17193 9.87156 1.27033 9.92979C1.39558 9.70584 1.52529 9.48638 1.65501 9.27139C1.52529 9.18181 1.43583 9.02953 1.43583 8.85933C1.43583 8.71153 1.49846 8.58164 1.60133 8.49206C1.42689 8.30395 1.27928 8.08896 1.08694 7.92324C0.993007 7.99938 0.876708 8.03969 0.746991 8.03969C0.442827 8.03969 0.196812 7.79335 0.196812 7.49327C0.196812 7.19318 0.442827 6.94236 0.746991 6.94236C0.84987 6.94236 0.948276 6.97372 1.03326 7.02298C1.17193 6.81695 1.32848 6.61988 1.46714 6.41385C1.35979 6.2974 1.29717 6.14512 1.29717 5.9794C1.29717 5.62557 1.58344 5.33444 1.94128 5.33444C1.96812 5.33444 1.99496 5.33444 2.01732 5.33892C2.08442 4.75218 2.16493 4.16545 2.24545 3.57871C2.00838 3.52049 1.82946 3.3055 1.82946 3.04572C1.82946 2.74116 2.07547 2.49482 2.37964 2.49482C2.61223 2.49482 2.80905 2.64262 2.88956 2.84417C3.33239 2.83969 3.77521 2.77699 4.21804 2.76803C4.21804 2.4142 4.50431 2.12755 4.85768 2.12755C4.93819 2.12755 5.01871 2.14546 5.09028 2.17234C5.2021 1.92152 5.32287 1.6707 5.44812 1.42436C5.29603 1.32583 5.19316 1.15563 5.19316 0.963035C5.19316 0.65847 5.43917 0.416609 5.74333 0.416609C6.0475 0.416609 6.28904 0.662948 6.28904 0.963035C6.28904 1.07501 6.25326 1.17802 6.19958 1.2676C6.20853 1.28552 6.22195 1.30343 6.23984 1.32135C6.53506 1.7334 6.8258 2.14546 7.11207 2.562C7.20153 2.42316 7.35362 2.3291 7.53254 2.3291C7.58174 2.3291 7.62647 2.33806 7.6712 2.35149C7.79644 2.00662 7.92616 1.66622 8.05588 1.32583C7.85907 1.24073 7.72487 1.04813 7.72487 0.81971C7.72487 0.515145 7.97089 0.268805 8.27058 0.268805C8.57027 0.268805 8.82076 0.515145 8.82076 0.81971C8.82076 0.913767 8.79392 1.00782 8.75366 1.08396C8.95495 1.24521 9.15176 1.40645 9.34857 1.57216C9.46487 1.44676 9.63037 1.37061 9.81377 1.37061C9.87639 1.37061 9.93454 1.37957 9.98821 1.39749C10.2387 1.46915 10.4266 1.68862 10.4534 1.95735C10.4534 1.97527 10.4534 1.99766 10.4534 2.01558C10.4534 2.3067 10.2566 2.55752 9.98821 2.63366C9.93007 2.65158 9.87192 2.66054 9.80929 2.66054C9.51408 2.66054 9.26806 2.46347 9.19202 2.19473C8.80287 2.38285 8.40924 2.57096 8.02009 2.75907C8.02009 2.78147 8.02904 2.80834 8.02904 2.83073C8.02904 3.10843 7.80539 3.33237 7.53254 3.33237C7.25968 3.33237 7.04498 3.11738 7.03603 2.84865C6.52611 2.83969 6.01619 2.80834 5.50179 2.80834C5.48837 3.15322 5.20657 3.42643 4.86215 3.42643C4.76822 3.42643 4.68323 3.40403 4.60272 3.3682C4.45958 3.6862 4.31197 3.99973 4.17331 4.31773C4.32539 4.40283 4.42827 4.56407 4.42827 4.75218C4.42827 5.02987 4.20462 5.24934 3.93177 5.24934C3.74838 5.24934 3.59182 5.1508 3.50236 5.003C3.14005 5.18216 2.78668 5.37475 2.42884 5.55838C2.52725 5.67036 2.58987 5.81816 2.58987 5.98388C2.58987 6.13168 2.54067 6.26605 2.45568 6.37354C2.59434 6.5303 2.733 6.69155 2.86719 6.84831C2.88509 6.86622 2.9164 6.8931 2.93429 6.91101C2.94324 6.91101 2.95218 6.91101 2.95665 6.91101C3.02822 6.87518 3.10426 6.85279 3.18478 6.85279C3.4621 6.85279 3.68575 7.07673 3.68575 7.34994C3.68575 7.62316 3.4621 7.85158 3.18478 7.85158C3.08637 7.85158 2.99691 7.82023 2.9164 7.77096C2.70169 8.00834 2.48252 8.24124 2.26781 8.47863C2.27676 8.48758 2.28123 8.50102 2.2857 8.50998C2.37964 8.59956 2.44226 8.72944 2.44226 8.87277C2.44226 8.96682 2.41542 9.05192 2.37069 9.12359C2.56303 9.2266 2.75537 9.32962 2.95218 9.42815C3.06848 9.29826 3.23845 9.21316 3.43079 9.21316C3.78416 9.21316 4.0749 9.49981 4.0749 9.85813C4.0749 10.2164 3.78863 10.5031 3.43079 10.5031C3.34133 10.5031 3.25635 10.4852 3.17583 10.4493M2.40648 6.41833C2.29018 6.54374 2.12468 6.61988 1.94128 6.61988C1.78025 6.61988 1.63265 6.55718 1.51635 6.45864C1.37321 6.66019 1.23008 6.85726 1.08694 7.05881C1.21666 7.15735 1.29717 7.31411 1.29717 7.48879C1.29717 7.63211 1.23902 7.76648 1.14956 7.86502C1.31059 8.06657 1.48951 8.2502 1.65948 8.44727C1.74 8.38905 1.8384 8.35769 1.94128 8.35769C2.02627 8.35769 2.10231 8.38009 2.16941 8.41592C2.18283 8.41592 2.19624 8.4204 2.21414 8.42488C2.43779 8.19198 2.64802 7.95459 2.86719 7.72169C2.75537 7.62763 2.6838 7.49327 2.6838 7.34098C2.6838 7.1887 2.7509 7.05882 2.85378 6.96924C2.85378 6.9558 2.86272 6.94684 2.86272 6.93788C2.71064 6.76321 2.55856 6.59301 2.40648 6.41833ZM3.59182 4.37148C3.31002 4.06243 3.04164 3.74891 2.76432 3.43091C2.66591 3.52944 2.52725 3.59215 2.37516 3.59215C2.34833 3.59215 2.32596 3.59215 2.3036 3.58767C2.22308 4.1744 2.14257 4.76114 2.07547 5.34788C2.1873 5.37475 2.29018 5.4285 2.37069 5.50016C2.73748 5.31652 3.09979 5.11945 3.4621 4.93582C3.43527 4.87311 3.42185 4.81041 3.42185 4.73875C3.42185 4.59094 3.48894 4.46105 3.58735 4.37148H3.59182ZM4.5401 3.33237C4.36565 3.22936 4.24041 3.04572 4.22251 2.83521C3.78416 2.85313 3.35028 2.89344 2.91192 2.91583C2.92087 2.96062 2.92982 3.00093 2.92982 3.04572C2.92982 3.17561 2.88509 3.29206 2.81352 3.38612C3.09084 3.70412 3.3637 4.02212 3.6455 4.33564C3.72601 4.27742 3.82442 4.24607 3.93177 4.24607C3.99886 4.24607 4.05701 4.2595 4.11516 4.2819C4.25383 3.9639 4.41485 3.65485 4.54457 3.33237H4.5401ZM7.06734 2.63814C7.04051 2.57544 7.00919 2.51273 6.96894 2.45899C6.69161 2.08276 6.43218 1.69309 6.15932 1.31687C6.06092 1.43332 5.90884 1.50946 5.74333 1.50946C5.65387 1.50946 5.57336 1.48707 5.50179 1.45123C5.39444 1.70653 5.2513 1.93943 5.1529 2.19921C5.34971 2.29775 5.48837 2.4993 5.50627 2.7322C6.02066 2.74116 6.53058 2.78147 7.04498 2.77251C7.04945 2.72772 7.0584 2.68293 7.07629 2.64262L7.06734 2.63814ZM9.30384 1.61695C9.10703 1.45571 8.91917 1.28999 8.71341 1.14219C8.615 1.27656 8.45397 1.36614 8.27058 1.36614C8.2169 1.36614 8.16323 1.35718 8.11403 1.34374C7.98431 1.68414 7.85459 2.02453 7.72935 2.36941C7.86354 2.42763 7.96642 2.54856 8.00667 2.69189C8.39583 2.4993 8.78945 2.31566 9.1786 2.12307C9.17413 2.08724 9.16965 2.05141 9.16965 2.01558C9.16965 1.86777 9.21886 1.7334 9.30384 1.62591V1.61695Z" fill="url(#paint0_linear_25_4973)"/>
</g>
<defs>
<linearGradient id="paint0_linear_25_4973" x1="10.8783" y1="0.788358" x2="17.2597" y2="38.0097" gradientUnits="userSpaceOnUse">
<stop stop-color="#FFCE94"/>
<stop offset="0.02" stop-color="#FEC78D"/>
<stop offset="0.17" stop-color="#FDA264"/>
<stop offset="0.33" stop-color="#FC8342"/>
<stop offset="0.49" stop-color="#FB6A28"/>
<stop offset="0.65" stop-color="#FA5915"/>
<stop offset="0.82" stop-color="#FA4F0A"/>
<stop offset="1" stop-color="#FA4C07"/>
</linearGradient>
<clipPath id="clip0_25_4973">
<rect width="126" height="26" fill="white"/>
</clipPath>
</defs>
</svg>
