<svg width="184" height="92" viewBox="0 0 184 92" fill="none" xmlns="http://www.w3.org/2000/svg">
<path fill-rule="evenodd" clip-rule="evenodd" d="M138.472 43.073C137.209 43.073 136.185 44.1213 136.185 45.4148C136.185 46.7082 137.209 47.7566 138.472 47.7566C139.736 47.7566 140.76 46.7082 140.76 45.4148C140.76 44.1213 139.736 43.073 138.472 43.073ZM48.7355 45.4148C48.7355 46.7082 47.7112 47.7566 46.4476 47.7566C45.1843 47.7566 44.16 46.7082 44.16 45.4148C44.16 44.1213 45.1843 43.073 46.4476 43.073C47.7112 43.073 48.7355 44.1213 48.7355 45.4148Z" fill="black"/>
<path fill-rule="evenodd" clip-rule="evenodd" d="M118.055 39.5601H121.392L123.706 49.2653H124.46L126.758 39.5601H130.026L126.616 52.4401H121.482L118.055 39.5601ZM107.451 52.4401H110.639V39.5601H107.451V52.4401ZM100.005 42.5185H96.3369V52.4401H93.1482V42.5185H89.4981V39.5601H100.005V42.5185ZM78.5974 45.2426C79.8486 45.2426 80.3285 44.7734 80.3285 43.8536C80.3285 42.9335 79.8486 42.4823 78.5974 42.4823H76.3351V45.2426H78.5974ZM79.0092 39.5601C81.9057 39.5601 83.585 41.1115 83.585 43.7993C83.585 46.5233 81.9057 48.1108 79.0092 48.1108H76.3351V52.4401H73.1471V39.5601H79.0092ZM59.555 46.4691H62.2806L61.3031 42.7353H60.5495L59.555 46.4691ZM67.0453 52.4401H63.8743L62.9833 49.1027H58.8693L57.9957 52.4401H54.8932L58.561 39.5601H63.3772L67.0453 52.4401Z" fill="black"/>
</svg>
