<svg width="120" height="60" viewBox="0 0 120 60" fill="none" xmlns="http://www.w3.org/2000/svg">
<path fill-rule="evenodd" clip-rule="evenodd" d="M42.1231 22.4415C42.1231 20.1462 42.6839 18.7436 45.6681 18.7436H50.6352C52.3189 18.7436 53.2883 19.1262 53.2883 20.4524V20.8885H58.9493C59.0007 15.6603 57.9546 14 49.8959 14H44.4435C39.3436 14 36.3086 15.275 36.3086 20.682V25.9983C36.3086 31.4054 39.3436 32.6803 44.4435 32.6803H49.8959C51.7674 32.6803 53.26 32.5905 54.4492 32.3876C54.4049 32.129 54.3815 31.856 54.3815 31.5643C54.3815 30.1483 54.9468 28.9694 55.9492 28.1342C56.7244 27.4887 57.7435 27.0782 58.9382 26.9602C58.9507 26.5921 58.9533 26.2029 58.9493 25.7915H53.2883V26.228C53.2883 27.5542 52.3189 27.9368 50.6352 27.9368H45.6681C42.6839 27.9368 42.1231 26.534 42.1231 24.2388V22.4415ZM77.0628 14V20.7927H65.7435V14H60.0816V26.937C61.3513 27.0117 62.4308 27.4316 63.236 28.125C64.1829 28.9406 64.717 30.0902 64.717 31.4698C64.717 31.8618 64.6661 32.2458 64.5668 32.6174L64.5498 32.6801H65.7435V25.8874H77.0628V32.6801H82.7238V14H77.0628ZM62.9578 31.4825C62.9578 29.767 61.6982 28.7014 59.671 28.7014C57.4985 28.7014 56.1491 29.8031 56.1491 31.5767C56.1491 32.4904 56.4864 33.0694 57.0312 33.7073L57.3114 34.0359L56.9238 34.2267C55.7478 34.8055 55.0174 35.9083 55.0174 37.1053C55.0174 39.4259 57.0878 40.4828 59.0114 40.4828C60.2443 40.4828 61.2044 40.1398 62.0332 39.4035L62.2859 39.1791L62.509 39.4325L63.1713 40.1839L63.1859 40.2004H63.2081H66.2414H66.354L66.2766 40.1186L64.0165 37.7321L63.8214 37.5259L63.9922 37.2992L66.1393 34.4485L66.1975 34.371H66.1003H63.3649H63.3406L63.3262 34.3906L62.5154 35.494L62.276 35.8198L61.999 35.525L61.2172 34.6923L60.9405 34.3973L61.2814 34.1795C62.3623 33.4883 62.9578 32.5306 62.9578 31.4825ZM59.7142 32.8703L59.4908 33.0149L59.2985 32.8309C58.9751 32.5205 58.6037 32.1084 58.6037 31.671C58.6037 31.0892 59.0298 30.6828 59.6396 30.6828C60.2688 30.6828 60.6916 31.0671 60.6916 31.6394C60.6916 32.0367 60.3627 32.4508 59.7142 32.8703ZM60.4991 37.7733C60.01 38.1515 59.5932 38.3131 59.1053 38.3131C58.3952 38.3131 57.6606 37.8201 57.6606 36.9951C57.6606 36.3025 58.1428 35.9361 58.6365 35.6203L58.8743 35.4683L59.0654 35.6759L60.5408 37.2803L60.7885 37.5497L60.4991 37.7733ZM55.8127 31.5767C55.8127 29.6263 57.3272 28.3655 59.671 28.3655C61.8718 28.3655 63.2939 29.5888 63.2939 31.4825C63.2939 32.6485 62.6329 33.7142 61.4625 34.4625L62.2444 35.2952L63.0552 34.1918L63.1705 34.035H63.3649H66.1003H66.8713L66.4077 34.6504L64.2609 37.5011L66.521 39.8878L67.1346 40.5364H66.2414H63.2081H63.0344L62.9188 40.4059L62.2569 39.6545C61.3646 40.4472 60.3224 40.819 59.0114 40.819C56.9257 40.819 54.681 39.6566 54.681 37.1053C54.681 35.772 55.5029 34.5516 56.7752 33.9253C56.1963 33.2472 55.8127 32.5967 55.8127 31.5767ZM58.9399 31.671C58.9399 31.973 59.2457 32.3144 59.5316 32.5883C60.2419 32.1289 60.3552 31.8015 60.3552 31.6394C60.3552 31.1816 59.9862 31.0187 59.6396 31.0187C59.2148 31.0187 58.9399 31.2747 58.9399 31.671ZM57.9967 36.9951C57.9967 37.6103 58.5601 37.9769 59.1053 37.9769C59.5524 37.9769 59.9043 37.8085 60.2934 37.5077L58.8177 35.9033C58.3022 36.2331 57.9967 36.507 57.9967 36.9951ZM28.6584 38.2379V38.4177C28.6584 39.0884 28.6498 39.6935 28.0666 40.1597C27.4938 40.6094 26.7974 40.6092 26.0663 40.6091H26.0263C24.2774 40.6091 23 40.5277 23 38.2872V36.701C23 34.673 24.1405 34.3785 26.0263 34.3785C27.7925 34.3785 28.6154 34.5501 28.6498 36.3904V36.6275H26.8838V36.3904C26.8236 35.8422 26.4208 35.8016 25.8376 35.8016C24.8606 35.8016 24.7659 36.0876 24.7659 36.9626V37.9192C24.7659 38.8355 24.809 39.187 25.8376 39.187C26.5494 39.187 26.8921 39.1375 26.8921 38.4177V38.2379H28.6584ZM31.4791 40.609C33.3482 40.609 33.7342 40.1844 33.7342 38.4176C33.7342 36.6028 33.365 36.2183 31.4791 36.2183C29.6018 36.2183 29.2331 36.6604 29.2331 38.4176C29.2331 40.1346 29.6357 40.609 31.4791 40.609ZM31.5048 39.5297C30.7934 39.5297 30.7075 39.35 30.7075 38.4176C30.7075 37.4858 30.7934 37.2979 31.5048 37.2979C32.1905 37.2979 32.2595 37.4858 32.2595 38.4176C32.2595 39.35 32.1905 39.5297 31.5048 39.5297ZM38.8173 38.4176C38.8173 40.1844 38.4319 40.609 36.5626 40.609C34.7194 40.609 34.3168 40.1346 34.3168 38.4176C34.3168 36.6604 34.685 36.2183 36.5626 36.2183C38.4488 36.2183 38.8173 36.6028 38.8173 38.4176ZM35.7911 38.4176C35.7911 39.35 35.877 39.5297 36.5883 39.5297C37.2744 39.5297 37.3431 39.35 37.3431 38.4176C37.3431 37.4858 37.2744 37.2979 36.5883 37.2979C35.877 37.2979 35.7911 37.4858 35.7911 38.4176ZM41.0553 36.2675H39.5807V42.4168H41.0553V39.9141H41.1235C41.3636 40.5029 41.8353 40.6091 42.3754 40.6091C43.6099 40.6091 44.0814 40.0863 44.0814 38.7777V37.7963C44.0814 36.6604 43.4644 36.2183 42.3754 36.2183C41.7325 36.2183 41.2609 36.3652 41.0895 36.9461H41.0209L41.0553 36.2675ZM41.7923 39.5298C41.1066 39.5298 41.0553 39.1374 41.0553 38.4177C41.0553 37.5103 41.1667 37.2979 41.7923 37.2979C42.5726 37.2979 42.6068 37.5839 42.6068 38.4177C42.6068 39.3908 42.4012 39.5298 41.7923 39.5298ZM49.0628 39.1291C49.0628 39.7753 48.8399 40.1431 48.4539 40.3554C48.0682 40.5607 47.5197 40.609 46.8679 40.609C45.0934 40.609 44.6645 40.0207 44.6645 38.4176C44.6645 36.7665 45.059 36.2183 46.8679 36.2183C48.5568 36.2183 49.0628 36.6677 49.0628 38.4176V38.655H46.1393C46.1393 39.4068 46.2593 39.6283 46.8679 39.6283C47.3223 39.6283 47.6139 39.5793 47.6139 39.1291H49.0628ZM47.5881 37.8786C47.5881 37.2402 47.3395 37.1994 46.8419 37.1994C46.3192 37.1994 46.1564 37.3137 46.1393 37.8786H47.5881ZM52.2004 37.8998V37.9357V38.1402H53.5293V37.805C53.5293 37.0198 53.4436 36.2183 52.4146 36.2183C51.8661 36.2183 51.4806 36.4068 51.2831 36.8973H51.2228V36.2675H49.7912V40.5607H51.2662V37.9848C51.2662 37.6325 51.3688 37.2979 51.8147 37.2979C52.2018 37.2979 52.2011 37.6068 52.2004 37.8998ZM73.6914 40.5604H72.0563V38.1562H69.922V40.5604H68.2869V34.4275H69.922V36.7333H72.0563V34.4275H73.6914V40.5604ZM77.4281 39.7344L77.3785 40.561H78.7447V36.2678H77.3377V38.9089C77.3377 39.334 76.9209 39.5301 76.5446 39.5301C76.0706 39.5301 76.0296 39.2196 76.0296 38.8275V36.2678H74.6228V39.2033C74.6228 40.2496 75.2284 40.6094 76.0791 40.6094C76.6757 40.6094 77.1667 40.3973 77.3625 39.7344H77.4281ZM81.1079 36.2675V37.0682H81.165C81.37 36.3903 81.7871 36.2183 82.449 36.2183C83.3979 36.2183 83.8312 36.6677 83.8312 37.592V40.5607H82.4247V37.9192C82.416 37.5018 82.3021 37.2979 81.8439 37.2979C81.2143 37.2979 81.1079 37.6734 81.1079 38.1973V40.5607H79.7018V36.2675H81.1079ZM86.341 37.2979H87.9688V36.2674H86.341V35.3598H84.9345V36.2674H84.4115V37.2979H84.9345V39.4155C84.9345 40.495 85.6788 40.609 86.5783 40.609C87.7227 40.609 88.1573 40.3478 88.1573 39.1786V38.7941H87.0362L87.0284 39.0225C87.0272 39.0444 87.0261 39.0661 87.0251 39.0875C87.012 39.355 87.0011 39.5792 86.6602 39.5792C86.3986 39.5792 86.3495 39.4731 86.341 39.2192V37.2979ZM92.703 39.1291C92.703 39.7753 92.4905 40.1431 92.1222 40.3554C91.7544 40.5607 91.2309 40.609 90.6096 40.609C88.9171 40.609 88.5078 40.0207 88.5078 38.4176C88.5078 36.7665 88.8846 36.2183 90.6096 36.2183C92.2208 36.2183 92.703 36.6677 92.703 38.4176V38.655H89.9146C89.9146 39.4068 90.0297 39.6283 90.6096 39.6283C91.0434 39.6283 91.3206 39.5793 91.3206 39.1291H92.703ZM91.2968 37.8786C91.2968 37.2402 91.0597 37.1994 90.5853 37.1994C90.0863 37.1994 89.9308 37.3137 89.9146 37.8786H91.2968ZM95.6961 37.9002L95.696 37.9357V38.1402H96.9633V37.805C96.9633 37.0198 96.8815 36.2183 95.9001 36.2183C95.3771 36.2183 95.0088 36.4068 94.8208 36.8973H94.7642V36.2675H93.398V40.5607H94.804V37.9848C94.804 37.6325 94.9026 37.2979 95.3278 37.2979C95.6973 37.2979 95.6967 37.607 95.6961 37.9002ZM23.1875 44.3993C23.1875 43.6896 23.5902 43.5221 24.2672 43.5221H25.1506C26.2202 43.5221 26.359 43.7498 26.3522 44.4361H25.6007V44.3693C25.6007 44.1952 25.4722 44.1449 25.2488 44.1449H24.4297C24.0337 44.1449 23.9591 44.329 23.9591 44.6305V44.8916C23.9591 45.2431 24.0337 45.3771 24.3891 45.3771H25.1914C25.5297 45.3771 25.6313 45.3436 25.6313 45.0421H26.3827V45.27C26.3827 45.6784 26.2337 45.9999 25.4789 45.9999H24.2672C23.5902 45.9999 23.1875 45.8324 23.1875 45.1226V44.3993ZM49.2841 43.5488H52.1476V44.1516H51.0914V45.973H50.3402V44.1516H49.2841V43.5488ZM45.2766 43.5488H47.5442C48.1231 43.5488 48.2788 43.8335 48.2788 44.2688V44.4228C48.2788 44.7475 48.2043 44.9386 47.8591 45.0188V45.0256C48.0826 45.0657 48.2687 45.1627 48.2687 45.5611V45.973H47.5173V45.6817C47.5173 45.4271 47.4428 45.3436 47.2092 45.3436H46.0279V45.973H45.2766V43.5488ZM46.0279 44.7409H47.2701C47.4732 44.7409 47.5477 44.6604 47.5477 44.4863V44.4061C47.5477 44.1917 47.4395 44.1516 47.2024 44.1516H46.0279V44.7409ZM40.7816 44.3993C40.7816 43.6896 41.1844 43.5221 41.8613 43.5221H43.0663C43.7433 43.5221 44.146 43.6896 44.146 44.3993V45.1226C44.146 45.8324 43.7433 45.9999 43.0663 45.9999H41.8613C41.1844 45.9999 40.7816 45.8324 40.7816 45.1226V44.3993ZM41.5533 44.8916C41.5533 45.2431 41.6278 45.3771 41.9832 45.3771H42.9444C43.2998 45.3771 43.3744 45.2431 43.3744 44.8916V44.6305C43.3744 44.329 43.2999 44.1449 42.9038 44.1449H42.0237C41.6278 44.1449 41.5533 44.329 41.5533 44.6305V44.8916ZM37.1464 43.5488H39.7052V44.1315H37.8977V44.5835H39.6207V45.1462H37.8977V45.973H37.1464V43.5488ZM31.9541 43.5488H33.1083L33.9579 45.1094L34.8074 43.5488H35.9616V45.973H35.2305V44.232H35.2236L34.2388 45.973H33.6769L32.6919 44.232H32.6851V45.973H31.9541V43.5488ZM27.4591 44.3993C27.4591 43.6896 27.8618 43.5221 28.5387 43.5221H29.7437C30.4207 43.5221 30.8235 43.6896 30.8235 44.3993V45.1226C30.8235 45.8324 30.4207 45.9999 29.7437 45.9999H28.5387C27.8618 45.9999 27.4591 45.8324 27.4591 45.1226V44.3993ZM28.2308 44.8916C28.2308 45.2431 28.3052 45.3771 28.6606 45.3771H29.6219C29.9773 45.3771 30.0518 45.2431 30.0518 44.8916V44.6305C30.0518 44.329 29.9773 44.1449 29.5813 44.1449H28.7012C28.3052 44.1449 28.2308 44.329 28.2308 44.6305V44.8916ZM56.2939 43.5488H55.5425V45.973H56.2939V43.5488ZM94.437 45.1794H93.6856V45.3469C93.6856 45.8725 93.9597 45.9999 94.6434 45.9999H95.554C96.5527 45.9999 96.7758 45.8926 96.7758 45.2398C96.7758 44.5333 96.5052 44.4632 95.3372 44.4663C94.5318 44.4698 94.4405 44.463 94.4405 44.252C94.4405 44.1214 94.5557 44.0645 94.7248 44.0645H95.5576C95.9027 44.0645 95.923 44.1381 95.923 44.3155H96.6744V44.2388C96.6744 43.8135 96.593 43.5221 95.7265 43.5221H94.6774C93.7297 43.5221 93.6891 43.8604 93.6891 44.299C93.6891 44.8949 93.8177 45.0289 94.9482 45.0289C95.9162 45.0289 96.0042 45.0421 96.0042 45.2533C96.0042 45.4408 95.8419 45.4573 95.6826 45.4573H94.7621C94.5453 45.4573 94.4405 45.4373 94.437 45.1794ZM90.3753 43.5488H89.2111V45.973H89.9624V44.2119H89.9693L91.3807 45.973H92.545V43.5488H91.7936V45.3101H91.7867L90.3753 43.5488ZM85.7957 43.5221C85.1189 43.5221 84.7162 43.6896 84.7162 44.3993V45.1226C84.7162 45.8324 85.1189 45.9999 85.7957 45.9999H87.0008C87.6776 45.9999 88.0806 45.8324 88.0806 45.1226V44.3993C88.0806 43.6896 87.6776 43.5221 87.0008 43.5221H85.7957ZM85.9177 45.3771C85.5622 45.3771 85.4876 45.2431 85.4876 44.8916V44.6305C85.4876 44.329 85.5622 44.1449 85.9583 44.1449H86.8382C87.2343 44.1449 87.3089 44.329 87.3089 44.6305V44.8916C87.3089 45.2431 87.2343 45.3771 86.8788 45.3771H85.9177ZM83.5449 43.5488H82.7935V45.973H83.5449V43.5488ZM81.7475 43.5488H78.884V44.1516H79.9399V45.973H80.6913V44.1516H81.7475V43.5488ZM77.0221 43.5488H76.0443L74.7173 45.973H75.5569L75.7768 45.5444H77.3001L77.5334 45.973H78.3694L77.0221 43.5488ZM77.0191 45.0221H76.0577L76.5315 44.1114L77.0191 45.0221ZM71.5829 43.5488H70.7603L72.0769 45.973H73.0043L74.3212 43.5488H73.4988L72.5408 45.3502L71.5829 43.5488ZM67.5819 43.5221C66.905 43.5221 66.5023 43.6896 66.5023 44.3993V45.1226C66.5023 45.8324 66.905 45.9999 67.5819 45.9999H68.7869C69.464 45.9999 69.8667 45.8324 69.8667 45.1226V44.3993C69.8667 43.6896 69.464 43.5221 68.7869 43.5221H67.5819ZM67.7038 45.3771C67.3485 45.3771 67.274 45.2431 67.274 44.8916V44.6305C67.274 44.329 67.3485 44.1449 67.7444 44.1449H68.6246C69.0205 44.1449 69.095 44.329 69.095 44.6305V44.8916C69.095 45.2431 69.0205 45.3771 68.6649 45.3771H67.7038ZM63.2019 43.5488H62.0377V45.973H62.7891V44.2119H62.7959L64.2074 45.973H65.3716V43.5488H64.6202V45.3101H64.6134L63.2019 43.5488ZM58.6837 43.5488H57.5192V45.973H58.2706V44.2119H58.2775L59.6887 45.973H60.8532V43.5488H60.1018V45.3101H60.0949L58.6837 43.5488Z" fill="black"/>
</svg>
