<svg width="184" height="92" viewBox="0 0 184 92" fill="none" xmlns="http://www.w3.org/2000/svg">
<path d="M91.6504 23.5337C85.0856 23.5337 79.7668 28.8524 79.7668 35.4172C79.7668 41.982 85.0856 47.3008 91.6504 47.3008C98.2155 47.3008 103.534 41.982 103.534 35.4172C103.516 28.871 98.1962 23.5523 91.6504 23.5337ZM91.6504 45.3295C86.1828 45.3295 81.7568 40.9034 81.7568 35.4358C81.7568 29.9683 86.1828 25.5421 91.6504 25.5421C94.5328 25.5421 97.2854 26.8068 99.164 29.0012L94.645 32.8694C94.5144 32.7206 94.3653 32.5719 94.2172 32.4417C92.5621 31.0097 90.0511 31.2142 88.6377 32.8694C87.2057 34.5246 87.4103 37.0352 89.0654 38.4485C90.7206 39.8805 93.231 39.6759 94.645 38.0208L91.6318 35.4358H101.526C101.544 40.8847 97.118 45.3295 91.6504 45.3295Z" fill="black"/>
<path d="M91.6512 48.8629C84.2309 48.8629 78.2054 42.8373 78.2054 35.4171C78.2054 27.9969 84.2309 21.9714 91.6512 21.9714C99.0527 21.99 105.078 28.0155 105.097 35.4171C105.097 39.0063 103.702 42.391 101.154 44.9202C98.6065 47.468 95.2403 48.8629 91.6512 48.8629ZM91.6512 22.5107C84.5284 22.5107 78.7262 28.2944 78.7262 35.4171C78.7262 42.5398 84.5098 48.3235 91.6325 48.3235C95.0728 48.3235 98.3278 46.9845 100.764 44.5483C103.2 42.1121 104.539 38.8576 104.539 35.4171C104.539 28.313 98.7556 22.5293 91.6512 22.5107Z" fill="black"/>
<path d="M113.075 65.8605H113.67V69.4869H115.902V70.0076H113.075V65.8605ZM111.271 68.4827L110.379 66.4556L109.486 68.4827H111.271ZM111.476 68.9476H109.263L108.817 69.989H108.202L110.081 65.8605H110.658L112.535 69.989H111.922L111.476 68.9476ZM107.552 65.8605V69.989H107.068L104.576 66.902V69.989H103.981V65.8605H104.464L106.938 68.9476V65.8605H107.552ZM101.043 69.5056C101.321 69.5056 101.62 69.4312 101.861 69.301C102.103 69.1708 102.288 68.9662 102.437 68.7245C102.716 68.2224 102.716 67.6086 102.437 67.1065C102.308 66.8647 102.103 66.6788 101.861 66.53C101.62 66.3813 101.321 66.3254 101.043 66.3254C100.764 66.3254 100.466 66.3998 100.225 66.53C99.9829 66.6602 99.7777 66.8647 99.648 67.1065C99.3693 67.6086 99.3693 68.2224 99.648 68.7245C99.7777 68.9662 99.9829 69.1522 100.225 69.301C100.466 69.4497 100.746 69.5242 101.043 69.5056ZM101.043 70.0263C100.652 70.0263 100.262 69.9333 99.9084 69.7473C99.5735 69.5799 99.3131 69.301 99.1273 68.9849C98.7363 68.3153 98.7363 67.497 99.1273 66.8276C99.3131 66.5114 99.5919 66.2511 99.9084 66.0651C100.615 65.6931 101.452 65.6931 102.159 66.0651C102.494 66.2324 102.754 66.4928 102.94 66.8276C103.311 67.497 103.311 68.3153 102.94 68.9849C102.754 69.301 102.474 69.5613 102.159 69.7473C101.824 69.9519 101.433 70.0449 101.043 70.0263ZM97.4161 65.8605H98.0113V69.989H97.4161V65.8605ZM94.6828 66.3626H93.2687V65.8419H96.6911V66.3626H95.278V69.989H94.7012L94.6828 66.3626ZM92.414 68.4827L91.521 66.4556L90.6283 68.4827H92.414ZM92.6183 68.9476H90.4238L89.9774 69.989H89.3637L91.2421 65.8605H91.8185L93.6965 69.989H93.0829L92.6183 68.9476ZM88.7128 65.8605V69.989H88.2293L85.7373 66.902V69.989H85.1422V65.8605H85.6257L88.0992 68.9476V65.8605H88.7128ZM82.6502 68.2224C82.9477 68.241 83.2639 68.1665 83.5057 67.9806C83.7102 67.8132 83.8218 67.5529 83.8032 67.2925C83.8218 67.0322 83.7102 66.7718 83.5057 66.6044C83.2639 66.437 82.9477 66.344 82.6502 66.3626H81.6459V68.2224H82.6502ZM83.8218 69.989L82.9291 68.7245C82.8175 68.7431 82.7246 68.7431 82.6688 68.7431H81.6459V70.0076H81.0509V65.8791H82.6688C83.1152 65.8605 83.5614 65.9907 83.9334 66.2697C84.2495 66.53 84.417 66.9206 84.3983 67.3297C84.3983 67.6272 84.3239 67.9062 84.1566 68.1479C83.9892 68.3711 83.7474 68.5571 83.487 68.6315L84.4727 70.0263H83.8218V69.989ZM80.2326 69.4683V69.989H77.2385V65.8605H80.1582V66.3813H77.8335V67.6458H79.8978V68.1479H77.8335V69.4869H80.2326V69.4683ZM74.4861 66.3626H73.0727V65.8419H76.4946V66.3626H75.0812V69.989H74.5047L74.4861 66.3626ZM72.4032 65.8605V69.989H71.9197L69.4277 66.902V69.989H68.8325V65.8605H69.3161L71.7895 68.9476V65.8605H72.4032ZM67.382 65.8605H67.9771V69.989H67.382V65.8605ZM112.015 52.0429H107.57L103.832 62.5316V55.6507H106.064V52.0429H97.6213V55.6693H99.8523V62.5502L96.1704 52.0429H91.7442L88.2665 61.8435L86.4068 58.5705C87.8388 58.1241 88.5455 57.2128 88.5455 55.8181C88.5455 54.944 88.3595 54.2374 88.0061 53.6608C87.6342 53.0843 87.0763 52.6565 86.444 52.4334C85.6257 52.1545 84.7516 52.0243 83.8962 52.0429H79.0237V56.5248H73.147V59.1469H74.8952C74.8022 59.4259 74.6163 59.6862 74.3559 59.8537C74.0956 60.021 73.7794 60.114 73.4633 60.114C72.9053 60.0954 72.3845 59.835 72.0684 59.3701C71.6779 58.868 71.4733 58.2543 71.492 57.6219C71.4733 56.9897 71.6779 56.3574 72.0499 55.8553C72.366 55.3903 72.9053 55.1114 73.4633 55.1114C74.0956 55.1114 74.6163 55.4276 75.0254 56.0599L78.5403 54.7581C78.0195 53.8654 77.2756 53.1401 76.383 52.6194C75.4717 52.0986 74.4303 51.8197 73.3702 51.8383C72.3288 51.8383 71.3059 52.0986 70.3947 52.6194C69.502 53.1215 68.7396 53.8468 68.2189 54.7208C67.1402 56.5062 67.1402 58.7564 68.2189 60.5417C68.7582 61.4158 69.502 62.1411 70.3947 62.6432C71.3059 63.1639 72.3288 63.4243 73.3702 63.4243C74.4117 63.4243 75.4345 63.1639 76.3458 62.6432C77.2385 62.1411 78.0009 61.4158 78.5216 60.5417C78.7262 60.1884 78.9121 59.835 79.0423 59.4445V63.0709H82.985V59.2771L84.919 63.0709H92.0792L92.4325 61.6762H95.4261L95.7794 63.0709H107.923L108.277 61.6762H111.271L111.625 63.0709H115.92L112.015 52.0429ZM83.6359 57.0455H82.9477V54.8696H83.7661C84.0264 54.8696 84.2868 54.9626 84.4727 55.1672C84.6586 55.3531 84.7516 55.6135 84.7516 55.8739C84.7516 56.6549 84.3797 57.0455 83.6359 57.0455ZM93.0645 59.0539L93.8456 55.3903H93.9201L94.7196 59.0539H93.0645ZM108.91 59.0539L109.691 55.3903H109.764L110.565 59.0539H108.91Z" fill="black"/>
</svg>
