<svg width="184" height="92" viewBox="0 0 184 92" fill="none" xmlns="http://www.w3.org/2000/svg">
<mask id="mask0_5_385" style="mask-type:luminance" maskUnits="userSpaceOnUse" x="43" y="37" width="99" height="18">
<path d="M141.533 37.72H43.24V54.7806H141.533V37.72Z" fill="white"/>
</mask>
<g mask="url(#mask0_5_385)">
<path d="M78.3307 41.6804V50.834H85.6701V49.2414L80.3525 49.2552V46.998H85.6701V45.4055L80.3525 45.3917V43.2729H85.6701V41.6804H78.3307Z" fill="black"/>
<path d="M94.8235 50.8338V41.6665H96.7619V50.8338H94.8235Z" fill="black"/>
<path d="M69.5369 41.6665L71.8218 48.8259L74.2314 41.6665H77.0702V50.8338H75.2146V43.9653L72.8189 50.8338H70.8109L68.5537 43.9653V50.8338H66.6843V41.6665H69.5369Z" fill="black"/>
<path d="M89.2151 43.3006H86.2932V41.6665H94.2006V43.3006H91.1538V50.8338H89.2151V43.3006Z" fill="black"/>
<path d="M116.841 41.6804V50.834H124.181V49.2414H118.863V46.998H124.181V45.4055L118.863 45.3917V43.2729H124.181V41.6804H116.841Z" fill="black"/>
<path d="M136.547 43.3006H133.625V41.6665H141.532V43.3006H138.486V50.8338H136.547V43.3006Z" fill="black"/>
<path d="M104.254 48.2443L100.487 41.6665H98.0499V50.8338H100.031L99.947 43.896L103.894 50.8338H106.124V41.6665H104.157L104.254 48.2443Z" fill="black"/>
<path d="M111.51 48.4935L108.768 41.6665H106.566L110.568 50.8338H112.577L116.385 41.6665H114.335L111.51 48.4935Z" fill="black"/>
<path d="M130.454 45.5024H127.906C127.103 45.5024 126.701 45.17 126.701 44.5053C126.701 43.6745 127.158 43.3006 128.183 43.3006H132.946V41.6665H127.906C126.784 41.6665 125.967 41.8881 125.469 42.3451C124.942 42.7882 124.693 43.5083 124.693 44.4777C124.693 46.3056 125.635 47.1088 127.754 47.1088H130.038C131.036 47.1088 131.395 47.3996 131.395 48.1612C131.395 48.909 130.994 49.1998 129.9 49.1998H125.068V50.8338H130.205C132.42 50.8338 133.417 49.9753 133.417 48.0781C133.417 47.1503 133.196 46.4856 132.739 46.0979C132.268 45.6963 131.507 45.5024 130.454 45.5024Z" fill="black"/>
<path d="M57.5587 38.3569C57.5587 38.3569 56.354 37.8584 56.1878 37.7892C56.0216 37.7199 55.8554 37.7061 55.6754 37.7476C55.4954 37.7892 55.3708 37.8861 55.3015 37.9553C55.2323 38.0246 52.6427 40.6141 52.6427 40.6141C52.6427 40.6141 50.0809 38.0523 49.9978 37.9692C49.9147 37.8861 49.8177 37.803 49.61 37.7476C49.4023 37.6922 49.2223 37.7338 49.1115 37.7892C49.0007 37.8307 47.8929 38.3015 47.7406 38.3569C47.5882 38.4123 47.4497 38.5369 47.3528 38.6893C47.2836 38.8139 47.2282 38.9524 47.2282 39.1186C47.2282 38.9662 47.2282 42.719 47.2282 42.719L49.61 44.09V40.9603L50.7179 42.0682C50.8009 42.1512 50.8979 42.2066 51.0087 42.2482C51.0918 42.2759 51.161 42.3036 51.2856 42.3036C51.4103 42.3036 53.986 42.3036 53.986 42.3036C54.0829 42.3036 54.1798 42.2897 54.2629 42.2482C54.3599 42.2066 54.4568 42.1512 54.5676 42.0405C54.6784 41.9297 55.6616 40.9465 55.6616 40.9465V44.0761L58.0434 42.7052C58.0434 42.7052 58.0434 39.4924 58.0434 39.1325C58.0573 38.7585 57.8495 38.4816 57.5587 38.3569Z" fill="black"/>
<path d="M43.2539 46.1118C43.2539 46.1118 43.4201 47.3996 43.4478 47.5797C43.4755 47.7597 43.5447 47.912 43.6694 48.0504C43.794 48.189 43.9463 48.2444 44.0432 48.272C44.1402 48.2997 47.6714 49.2414 47.6714 49.2414C47.6714 49.2414 46.7297 52.7449 46.702 52.8419C46.6743 52.9526 46.6467 53.0773 46.702 53.2849C46.7574 53.4927 46.8959 53.6311 46.9929 53.7004C47.0898 53.7697 48.0453 54.5036 48.1699 54.6005C48.2946 54.6975 48.4746 54.7667 48.6547 54.7667C48.7931 54.7667 48.9455 54.739 49.0839 54.6559C48.9455 54.739 52.1997 52.8557 52.1997 52.8557V50.1L49.4855 51.6647L49.8871 50.1415C49.9148 50.0307 49.9148 49.92 49.9009 49.7953C49.8871 49.6983 49.8732 49.6429 49.804 49.5184C49.7347 49.4076 48.4469 47.1781 48.4469 47.1781C48.3915 47.095 48.3361 47.0257 48.2669 46.9703C48.1838 46.9011 48.0868 46.8457 47.9345 46.8042C47.796 46.7626 46.4389 46.4025 46.4389 46.4025L49.1531 44.8378L46.7713 43.4668C46.7713 43.4668 43.9879 45.0731 43.6694 45.2532C43.3508 45.4609 43.2124 45.7933 43.2539 46.1118Z" fill="black"/>
<path d="M57.1154 54.6144C57.1154 54.6144 58.154 53.8251 58.2925 53.7142C58.4309 53.6035 58.5279 53.465 58.5833 53.2989C58.6387 53.1188 58.611 52.9665 58.5972 52.8696C58.5695 52.7726 57.6278 49.2414 57.6278 49.2414C57.6278 49.2414 61.1313 48.2998 61.2421 48.2721C61.3529 48.2444 61.4775 48.2028 61.6299 48.0504C61.7822 47.8982 61.8376 47.7181 61.8514 47.5935C61.8653 47.4688 62.0176 46.278 62.0453 46.1256C62.0729 45.9595 62.0453 45.7794 61.9484 45.6271C61.8791 45.5024 61.7821 45.3916 61.6437 45.3086C61.7821 45.3916 58.5279 43.5083 58.5279 43.5083L56.146 44.8793L58.8603 46.4441L57.337 46.8457C57.2262 46.8734 57.1292 46.9288 57.0324 46.998C56.9631 47.0534 56.9077 47.1088 56.8523 47.2196C56.783 47.3303 55.4952 49.5599 55.4952 49.5599C55.4536 49.643 55.4121 49.726 55.3983 49.823C55.3845 49.9338 55.3845 50.0445 55.4259 50.1831C55.4675 50.3215 55.8275 51.6786 55.8275 51.6786L53.1133 50.1138V52.8696C53.1133 52.8696 55.8968 54.4759 56.2153 54.6559C56.52 54.8498 56.8662 54.8083 57.1154 54.6144Z" fill="black"/>
</g>
</svg>
