<svg width="184" height="92" viewBox="0 0 184 92" fill="none" xmlns="http://www.w3.org/2000/svg">
<path d="M74.4644 38.7022C76.1314 38.4968 77.9072 38.7894 79.3049 39.7575C80.5133 40.5975 81.3644 41.8585 81.6915 43.2933C82.1061 45.0757 81.8894 47.0457 80.9082 48.6142C80.1436 49.8288 78.9643 50.7248 77.5891 51.1358C76.0432 51.6087 74.3836 51.5522 72.8733 50.9754C71.7423 50.5432 70.7714 49.7739 70.0919 48.7718C69.1274 47.343 68.8236 45.5297 69.105 43.8439C69.3404 42.3927 70.0637 40.9986 71.2129 40.0662C72.1322 39.3044 73.2852 38.8532 74.4644 38.7022ZM74.499 40.0756C73.5365 40.296 72.7119 40.948 72.1866 41.7735C71.3039 43.1525 71.09 44.8927 71.4306 46.4781C71.6772 47.6132 72.257 48.7296 73.2289 49.3994C74.3086 50.1742 75.7964 50.3028 77.0104 49.7812C77.8453 49.4303 78.5113 48.7493 78.9298 47.9566C79.5648 46.7605 79.7337 45.3543 79.5498 44.0222C79.3565 42.7482 78.7852 41.4583 77.7214 40.6807C76.8105 40.0043 75.5919 39.8185 74.499 40.0756ZM83.7619 39.9301C84.6775 38.9517 86.0846 38.5793 87.3904 38.6834C88.1846 38.7312 88.9445 39.0236 89.566 39.5202C89.6429 39.5934 89.7949 39.6741 89.7151 39.8016C89.488 40.3823 89.2367 40.9527 88.9974 41.5287L88.6804 41.4049C88.6089 41.1552 88.4881 40.9224 88.3253 40.7202C88.1623 40.5181 87.9607 40.3505 87.732 40.2276C87.0603 39.8851 86.1887 39.8814 85.5621 40.327C84.9383 40.7473 84.6315 41.6084 84.9054 42.3205C85.0686 42.7727 85.4448 43.1056 85.8436 43.3477C86.5499 43.7839 87.3783 43.9527 88.1091 44.3412C88.9037 44.7511 89.6747 45.3046 90.1063 46.1085C90.5285 46.8825 90.5144 47.8262 90.2489 48.6489C90.0801 49.1494 89.8118 49.6106 89.4602 50.0048C89.1086 50.3989 88.6809 50.718 88.2029 50.9425C87.1428 51.4632 85.9035 51.5054 84.7666 51.2483C83.9007 51.0523 83.0733 50.6246 82.4833 49.951C82.684 49.2774 82.8735 48.6001 83.0733 47.9266L83.4308 48.0429C83.6024 48.9172 84.3191 49.5814 85.1325 49.8797C85.8829 50.1536 86.7638 50.2455 87.4843 49.8478C88.4102 49.344 88.7817 48.0363 88.2347 47.1273C87.8529 46.556 87.2225 46.2202 86.6165 45.9368C85.625 45.4959 84.5255 45.1864 83.7366 44.404C82.5508 43.237 82.6362 41.1206 83.7619 39.9301Z" fill="black"/>
<path d="M61.3191 38.8327C62.5526 38.8468 63.8069 38.6939 65.0264 38.9528C65.8792 39.1404 66.715 39.5513 67.2601 40.2548C68.0105 41.2193 68.0809 42.6189 67.5415 43.6978C67.0377 44.7109 66.0096 45.3863 64.9148 45.5955C65.9608 46.8375 66.9627 48.1152 67.9796 49.3882C68.9937 50.5899 70.126 51.7335 71.5097 52.5065C72.4478 53.0318 73.5285 53.3508 74.612 53.2645C74.688 53.4221 74.7649 53.5787 74.8409 53.7336C73.5444 54.1407 72.1204 54.2814 70.8071 53.8621C69.4928 53.4625 68.3896 52.5816 67.4168 51.6284C66.1428 50.3301 65.0405 48.8788 63.9166 47.452C63.3716 46.7662 62.82 46.0871 62.2638 45.4032C62.3088 45.2869 62.3575 45.1705 62.3997 45.0542C63.3725 45.0298 64.4073 44.7934 65.1203 44.0946C66.0443 43.2174 66.1109 41.5485 65.1653 40.6667C64.2628 39.9266 63.0077 39.9763 61.9073 40.0156C61.8923 43.3929 61.9073 46.7635 61.8988 50.1368C61.8594 50.5356 62.1202 50.8648 62.2618 51.2166H59.3369C59.4813 50.9708 59.6577 50.7428 59.7741 50.4821C59.7961 50.214 59.8017 49.9449 59.7909 49.6763V40.0972C59.8275 39.6423 59.5367 39.2652 59.395 38.8562C60.0357 38.8693 60.6756 38.8177 61.3191 38.8327ZM91.3383 38.8562H94.2871C94.1436 39.1986 93.8906 39.5213 93.9182 39.9106C93.9246 41.3562 93.9182 42.8019 93.9182 44.2475H100.438V39.9068C100.481 39.4941 100.139 39.1967 99.969 38.8571C100.953 38.8506 101.939 38.8571 102.919 38.8571C102.773 39.1986 102.52 39.5222 102.544 39.9115C102.549 43.3513 102.549 46.789 102.544 50.2251C102.535 50.5899 102.777 50.8901 102.908 51.2138H99.9718C100.125 50.8892 100.458 50.6162 100.436 50.2307V45.5636H93.9191V50.2298C93.9081 50.5937 94.1528 50.8921 94.2834 51.2147H91.344C91.4988 50.8921 91.8243 50.619 91.8131 50.2391C91.8093 46.9839 91.8075 43.728 91.8075 40.4716C91.8181 40.1901 91.8128 39.9082 91.7915 39.6273C91.6695 39.3543 91.4838 39.1151 91.3383 38.8562ZM104.138 38.8571H111.753C111.557 39.4199 111.366 39.9828 111.167 40.5514C110.747 40.4284 110.344 40.2455 109.916 40.1535C108.829 40.1329 107.74 40.1535 106.653 40.1461V44.2737H110.479C110.67 44.2687 110.858 44.2416 111.042 44.193C110.871 44.6461 110.713 45.1049 110.549 45.5608H106.657V49.8976H110.289C110.954 49.9286 111.571 49.6321 112.212 49.5036C112.025 50.0731 111.817 50.6387 111.624 51.2073H104.175C104.307 50.8217 104.541 50.4567 104.525 50.0327C104.518 46.6865 104.525 43.3403 104.525 39.995C104.499 39.5945 104.259 39.2398 104.138 38.8571ZM113.037 38.859C113.815 38.8515 114.594 38.859 115.373 38.8543C117.695 41.4266 120.008 44.0041 122.315 46.5871V39.9106C122.35 39.4979 122.009 39.1986 121.836 38.8571H124.409C124.27 39.2042 124.01 39.525 124.022 39.9153V51.5365C121.146 48.3676 118.269 45.1993 115.392 42.0316V49.7579C115.382 50.002 115.388 50.2464 115.412 50.4896C115.506 50.7401 115.63 50.9737 115.743 51.2157H113.205C113.368 50.8948 113.679 50.6181 113.683 50.2372V40.1939C113.735 39.6591 113.25 39.3027 113.037 38.859ZM58.88 53.045H66.9637C67.215 53.2467 67.5735 53.3968 67.5997 53.7654C64.6916 53.7833 61.7834 53.7654 58.88 53.773V53.045ZM76.5332 53.0469C92.4057 53.0431 108.278 53.0431 124.149 53.0469V53.773H77.0999C76.9179 53.6322 76.7353 53.4927 76.552 53.3545C76.5445 53.2523 76.5389 53.1491 76.5332 53.0469Z" fill="black"/>
</svg>
