<svg width="184" height="92" viewBox="0 0 184 92" fill="none" xmlns="http://www.w3.org/2000/svg">
<path fill-rule="evenodd" clip-rule="evenodd" d="M48.0743 38.0793H58.1367V48.1415H48.0743V44.2715H44.9783V48.1415V51.2376H48.0743H58.1367H61.2327V48.1415V38.0793V34.9832H58.1367H48.0743H44.9783V38.0793V39.6273H48.0743V38.0793Z" fill="black"/>
<path fill-rule="evenodd" clip-rule="evenodd" d="M42.6561 43.4974H52.7185V47.3675H55.8145V43.4974V40.4014H52.7185H42.6561H39.5601V43.4974V53.5597V56.6557H42.6561H52.7185H55.8145V53.5597V52.0117H52.7185V53.5597H42.6561V43.4974Z" fill="black"/>
<path d="M67.9676 43.7352C68.0382 44.2443 68.1767 44.6247 68.3834 44.8767C68.7613 45.3352 69.4088 45.5645 70.3259 45.5645C70.8753 45.5645 71.3212 45.504 71.6639 45.3831C72.3139 45.1513 72.639 44.7205 72.639 44.0905C72.639 43.7226 72.4777 43.438 72.1552 43.2364C71.8326 43.0399 71.3263 42.866 70.6359 42.7149L69.4567 42.4503C68.2977 42.1882 67.4965 41.9035 67.053 41.5961C66.3021 41.0821 65.9267 40.2784 65.9267 39.1849C65.9267 38.1871 66.2895 37.3582 67.0152 36.6981C67.7408 36.0379 68.8067 35.7078 70.2126 35.7078C71.3867 35.7078 72.387 36.0202 73.2135 36.6451C74.045 37.265 74.4808 38.1669 74.5211 39.3511H72.2837C72.2434 38.6809 71.9511 38.2047 71.4069 37.9226C71.0441 37.7361 70.593 37.6429 70.0538 37.6429C69.4542 37.6429 68.9755 37.7638 68.6177 38.0056C68.2599 38.2476 68.081 38.5852 68.081 39.0186C68.081 39.4167 68.2573 39.714 68.6101 39.9105C68.8368 40.0415 69.3207 40.1952 70.0614 40.3716L71.9813 40.8327C72.8229 41.0342 73.4578 41.3039 73.8862 41.6415C74.5513 42.1655 74.8839 42.924 74.8839 43.9166C74.8839 44.9345 74.4934 45.7811 73.7123 46.4564C72.9363 47.1266 71.8377 47.4618 70.4167 47.4618C68.9654 47.4618 67.824 47.1317 66.9925 46.4716C66.1611 45.8063 65.7454 44.8943 65.7454 43.7352H67.9676ZM76.2783 41.6944C76.2783 39.7492 76.7999 38.2501 77.843 37.1969C78.75 36.2797 79.9041 35.8212 81.305 35.8212C83.1797 35.8212 84.5502 36.4359 85.4171 37.6655C85.8957 38.3559 86.1527 39.0488 86.1879 39.7442H83.8597C83.7087 39.21 83.5145 38.8069 83.2776 38.5348C82.8546 38.051 82.2272 37.8091 81.3956 37.8091C80.5492 37.8091 79.8812 38.1518 79.3925 38.8371C78.9037 39.5174 78.6594 40.4825 78.6594 41.7322C78.6594 42.9819 78.9164 43.9191 79.4304 44.5441C79.9493 45.1639 80.6069 45.4738 81.4034 45.4738C82.2195 45.4738 82.8419 45.2068 83.2703 44.6726C83.5072 44.3853 83.7038 43.9545 83.8597 43.38H86.1651C85.9639 44.5944 85.4473 45.5821 84.6159 46.3431C83.7892 47.104 82.7285 47.4844 81.4336 47.4844C79.8309 47.4844 78.5712 46.9704 77.654 45.9424C76.737 44.9094 76.2783 43.4934 76.2783 41.6944ZM88.0889 47.1746V36.0328H90.3944V40.2809H94.7481V36.0328H97.061V47.1746H94.7481V42.2008H90.3944V47.1746H88.0889ZM100.965 36.0328L102.439 42.4124L102.757 44.1888L103.081 42.4503L104.336 36.0328H106.793L108.116 42.4124L108.456 44.1888L108.796 42.4805L110.285 36.0328H112.651L109.514 47.1746H107.291L105.946 40.6588L105.553 38.5046L105.161 40.6588L103.815 47.1746H101.653L98.4934 36.0328H100.965ZM116.419 42.9643H119.246L117.855 38.5802L116.419 42.9643ZM116.562 36.0328H119.193L123.138 47.1746H120.614L119.896 44.8842H115.791L115.02 47.1746H112.587L116.562 36.0328ZM127.043 37.9679V40.9611H129.68C130.205 40.9611 130.598 40.9007 130.86 40.7798C131.324 40.5681 131.555 40.1499 131.555 39.525C131.555 38.8497 131.331 38.3962 130.883 38.1644C130.631 38.0334 130.253 37.9679 129.749 37.9679H127.043ZM130.232 36.0328C131.014 36.048 131.613 36.1437 132.032 36.32C132.455 36.4965 132.813 36.7559 133.105 37.0986C133.347 37.3808 133.538 37.6932 133.679 38.0359C133.82 38.3786 133.891 38.7691 133.891 39.2075C133.891 39.7366 133.757 40.2582 133.49 40.7722C133.223 41.2811 132.783 41.6415 132.167 41.8531C132.682 42.0597 133.045 42.3545 133.257 42.7375C133.473 43.1154 133.581 43.6949 133.581 44.476V45.2243C133.581 45.7333 133.602 46.0785 133.642 46.2599C133.702 46.5471 133.843 46.7588 134.064 46.8949V47.1746H131.502C131.432 46.9276 131.382 46.7285 131.351 46.5774C131.29 46.2649 131.258 45.945 131.253 45.6175L131.238 44.5819C131.228 43.8713 131.096 43.3977 130.845 43.1608C130.598 42.924 130.132 42.8055 129.447 42.8055H127.043V47.1746H124.768V36.0328H130.232ZM135.27 45.2092L141.023 38.0056H135.414V36.0328H143.926V37.8998L138.098 45.2092H143.94V47.1746H135.27V45.2092Z" fill="black"/>
<path d="M65.6924 50.5046H66.8564V55.0739H69.6154V56.0755H65.6924V50.5046ZM77.5325 55.244C77.9936 55.244 78.359 55.0739 78.6284 54.7337C78.9005 54.3936 79.0367 53.9098 79.0367 53.2824C79.0367 52.6576 78.9005 52.1751 78.6284 51.8349C78.359 51.4923 77.9936 51.3209 77.5325 51.3209C77.0714 51.3209 76.7036 51.491 76.4289 51.8311C76.1543 52.1713 76.017 52.6551 76.017 53.2824C76.017 53.9098 76.1543 54.3936 76.4289 54.7337C76.7036 55.0739 77.0714 55.244 77.5325 55.244ZM80.2009 53.2824C80.2009 54.2827 79.9199 55.0486 79.358 55.5803C78.9373 56.0137 78.3285 56.2304 77.5325 56.2304C76.7362 56.2304 76.1278 56.0137 75.707 55.5803C75.1426 55.0486 74.8605 54.2827 74.8605 53.2824C74.8605 52.262 75.1426 51.4961 75.707 50.9845C76.1278 50.5512 76.7362 50.3345 77.5325 50.3345C78.3285 50.3345 78.9373 50.5512 79.358 50.9845C79.9199 51.4961 80.2009 52.262 80.2009 53.2824ZM89.4821 52.2431C89.3939 51.8627 89.1787 51.5968 88.8358 51.4457C88.6443 51.3625 88.4314 51.3209 88.1972 51.3209C87.7487 51.3209 87.3795 51.491 87.0896 51.8311C86.8025 52.1688 86.6589 52.6777 86.6589 53.3581C86.6589 54.0434 86.8153 54.5284 87.1276 54.8131C87.4399 55.0979 87.7952 55.2402 88.1934 55.2402C88.5839 55.2402 88.904 55.128 89.1536 54.9038C89.4028 54.6771 89.5564 54.381 89.6145 54.0157H88.3258V53.0859H90.6463V56.0755H89.8753L89.7581 55.38C89.534 55.6445 89.3324 55.831 89.1536 55.9394C88.8459 56.1284 88.4682 56.2228 88.0197 56.2228C87.2812 56.2228 86.6768 55.9671 86.2053 55.4556C85.7143 54.9416 85.4684 54.2386 85.4684 53.3466C85.4684 52.4447 85.7166 51.7216 86.2131 51.1773C86.7092 50.6331 87.3656 50.361 88.1821 50.361C88.89 50.361 89.4582 50.5411 89.8865 50.9015C90.3173 51.2592 90.5642 51.7064 90.6273 52.2431H89.4821ZM97.4713 56.0755H96.3149V50.5046H97.4713V56.0755ZM104.047 54.3558C104.082 54.6103 104.151 54.8005 104.254 54.9265C104.443 55.1557 104.767 55.2704 105.226 55.2704C105.5 55.2704 105.724 55.2402 105.895 55.1797C106.22 55.0638 106.382 54.8484 106.382 54.5334C106.382 54.3495 106.301 54.2071 106.14 54.1064C105.979 54.0081 105.726 53.9212 105.381 53.8456L104.791 53.7133C104.211 53.5823 103.811 53.4399 103.589 53.2862C103.214 53.0292 103.026 52.6274 103.026 52.0805C103.026 51.5817 103.207 51.1673 103.57 50.8372C103.933 50.5071 104.466 50.342 105.169 50.342C105.756 50.342 106.256 50.4983 106.669 50.8108C107.085 51.1206 107.303 51.5716 107.324 52.1637H106.205C106.185 51.8286 106.038 51.5906 105.766 51.4494C105.585 51.3562 105.359 51.3096 105.09 51.3096C104.79 51.3096 104.551 51.37 104.371 51.491C104.193 51.612 104.103 51.7807 104.103 51.9975C104.103 52.1965 104.191 52.3451 104.368 52.4434C104.481 52.5089 104.723 52.5858 105.094 52.6739L106.053 52.9045C106.474 53.0053 106.792 53.1401 107.005 53.3089C107.338 53.5709 107.505 53.9502 107.505 54.4465C107.505 54.9554 107.31 55.3787 106.919 55.7164C106.531 56.0515 105.981 56.2191 105.271 56.2191C104.545 56.2191 103.975 56.054 103.559 55.7239C103.143 55.3913 102.935 54.9353 102.935 54.3558H104.047ZM117.058 50.5046V51.491H115.391V56.0755H114.22V51.491H112.545V50.5046H117.058ZM123.452 56.0755H122.296V50.5046H123.452V56.0755ZM128.943 53.3353C128.943 52.3628 129.204 51.6132 129.726 51.0866C130.179 50.628 130.756 50.3988 131.456 50.3988C132.394 50.3988 133.079 50.7062 133.512 51.3209C133.751 51.6661 133.88 52.0126 133.898 52.3602H132.734C132.659 52.0931 132.561 51.8917 132.442 51.7556C132.231 51.5136 131.918 51.3927 131.501 51.3927C131.079 51.3927 130.745 51.5641 130.5 51.9068C130.256 52.2469 130.133 52.7294 130.133 53.3543C130.133 53.9791 130.262 54.4478 130.519 54.7602C130.779 55.0701 131.107 55.225 131.506 55.225C131.913 55.225 132.225 55.0915 132.439 54.8244C132.557 54.6808 132.656 54.4654 132.734 54.1781H133.886C133.786 54.7854 133.528 55.2792 133.112 55.6597C132.698 56.0401 132.168 56.2304 131.521 56.2304C130.719 56.2304 130.089 55.9733 129.631 55.4593C129.172 54.9428 128.943 54.2348 128.943 53.3353ZM140.265 54.3558C140.301 54.6103 140.37 54.8005 140.473 54.9265C140.662 55.1557 140.986 55.2704 141.445 55.2704C141.719 55.2704 141.942 55.2402 142.113 55.1797C142.438 55.0638 142.601 54.8484 142.601 54.5334C142.601 54.3495 142.52 54.2071 142.359 54.1064C142.198 54.0081 141.945 53.9212 141.599 53.8456L141.01 53.7133C140.43 53.5823 140.03 53.4399 139.808 53.2862C139.432 53.0292 139.245 52.6274 139.245 52.0805C139.245 51.5817 139.426 51.1673 139.789 50.8372C140.152 50.5071 140.685 50.342 141.388 50.342C141.974 50.342 142.475 50.4983 142.888 50.8108C143.304 51.1206 143.522 51.5716 143.542 52.1637H142.423C142.403 51.8286 142.257 51.5906 141.985 51.4494C141.803 51.3562 141.578 51.3096 141.308 51.3096C141.008 51.3096 140.769 51.37 140.591 51.491C140.411 51.612 140.322 51.7807 140.322 51.9975C140.322 52.1965 140.41 52.3451 140.586 52.4434C140.7 52.5089 140.942 52.5858 141.312 52.6739L142.272 52.9045C142.693 53.0053 143.01 53.1401 143.225 53.3089C143.557 53.5709 143.723 53.9502 143.723 54.4465C143.723 54.9554 143.528 55.3787 143.137 55.7164C142.75 56.0515 142.201 56.2191 141.49 56.2191C140.765 56.2191 140.193 56.054 139.778 55.7239C139.362 55.3913 139.155 54.9353 139.155 54.3558H140.265Z" fill="black"/>
</svg>
