<svg width="184" height="92" viewBox="0 0 184 92" fill="none" xmlns="http://www.w3.org/2000/svg">
<path d="M65.4352 46.2819C60.1115 46.2819 55.8882 43.5189 55.8882 40.0712C55.8882 36.7153 60.0908 34.0442 65.3433 34.0442C70.7114 34.0442 74.822 36.7153 74.822 40.1868C74.825 43.5426 70.6195 46.2819 65.4352 46.2819ZM70.8478 36.739C70.8478 35.6895 68.3358 34.8209 65.275 34.8209C62.2825 34.8209 59.9069 35.6895 59.9069 36.8072C59.9069 37.5157 61.0487 38.2006 63.0596 38.5414L63.196 38.5652C63.5163 36.3506 64.409 34.9129 65.4352 34.9129C66.3724 34.9129 67.2858 36.487 67.5825 38.5652C69.617 38.2687 70.8478 37.5602 70.8478 36.739ZM73.4755 39.8903C73.4755 38.9091 73.1107 37.9486 72.402 37.0829V37.2193C72.402 38.4762 70.483 39.6383 67.7871 40.0267L67.7189 40.0504V40.1186C67.7189 42.6978 67.1702 44.5032 66.1203 45.5527C70.3022 45.2769 73.4755 42.8341 73.4755 39.8903ZM57.2584 39.8666C57.2584 42.8341 60.3429 45.185 64.6374 45.5527C63.6082 44.5476 63.0625 42.8134 63.0625 40.2313V40.0475L62.9469 40.0237C60.1619 39.4753 58.332 38.4495 58.332 37.1689C58.332 37.1451 58.332 37.1244 58.3558 37.0532C57.6232 37.904 57.2584 38.8853 57.2584 39.8666ZM66.7165 38.6126C66.4644 37.1274 66.0076 36.3506 65.367 36.3506C64.7738 36.3506 64.2696 37.2193 64.0205 38.6571L64.1124 38.6808C64.5009 38.7045 64.934 38.7252 65.3907 38.7252C65.8237 38.7252 66.2359 38.6808 66.6245 38.6808H66.7372L66.7165 38.6126ZM65.5272 40.2105C64.934 40.2105 64.409 40.1868 63.9968 40.1423H63.9286C63.9968 42.2412 64.59 43.6583 65.4145 43.6583C66.1678 43.6583 66.7846 42.173 66.8529 40.1423C66.3724 40.2105 66.2122 40.2105 65.5272 40.2105Z" fill="black"/>
<path d="M83.936 37.5604H81.2193V44.5004H79.2767V37.5604H76.6282V35.915H83.936V37.5604Z" fill="black"/>
<path d="M88.8888 44.8441C86.3768 44.8441 84.3659 42.8341 84.3659 40.2995C84.3659 37.741 86.4213 35.6628 88.9334 35.6628C91.4009 35.6628 93.4803 37.741 93.4803 40.2075C93.4803 42.7896 91.4454 44.8441 88.8888 44.8441ZM88.9571 37.4001C87.4504 37.4001 86.4213 38.5414 86.4213 40.2549C86.3976 41.9892 87.4029 43.1099 88.9126 43.1099C90.3985 43.1099 91.3802 41.9685 91.3802 40.2342C91.3772 38.5414 90.3955 37.4001 88.9571 37.4001Z" fill="black"/>
<path d="M98.9341 41.3518V44.5031H96.9708V41.3281L93.5659 35.9177H95.8254L97.9487 39.5256L100.164 35.9177H102.403L98.9341 41.3518Z" fill="black"/>
<path d="M106.924 44.8441C104.413 44.8441 102.402 42.8341 102.402 40.2995C102.402 37.741 104.457 35.6628 106.969 35.6628C109.437 35.6628 111.512 37.741 111.512 40.2075C111.516 42.7896 109.481 44.8441 106.924 44.8441ZM106.992 37.4001C105.486 37.4001 104.457 38.5414 104.457 40.2549C104.433 41.9892 105.438 43.1099 106.945 43.1099C108.431 43.1099 109.413 41.9685 109.413 40.2342C109.413 38.5414 108.431 37.4001 106.992 37.4001Z" fill="black"/>
<path d="M119.253 37.5604H116.534V44.5004H114.593V37.5604H111.946V35.915H119.253V37.5604Z" fill="black"/>
<path d="M127.953 44.5004H125.852L125.123 42.606H121.466L120.757 44.5004H118.654L122.103 35.915H124.503L127.953 44.5004ZM122.035 41.0763H124.524L123.29 37.7886L122.035 41.0763Z" fill="black"/>
<path d="M56.0365 48.0845V57.9564H128.112V48.0845H56.0365ZM64.1183 55.4811H62.9646V51.6834H62.9498L61.8584 55.4811H60.7284L59.6933 51.6834H59.6785V55.4811H58.5248V50.5599H60.4318L61.3186 53.9069H61.3335L62.2766 50.5599H64.1213V55.4811H64.1183ZM67.9175 55.4811L67.6061 54.3901H65.9898L65.6665 55.4811H64.498L66.0669 50.557H67.6298L69.1691 55.4811H67.9175ZM72.4731 51.3781H71.1533V55.484H69.9669V51.3781H68.6472V50.5599H72.4701V51.3781H72.4731ZM76.0232 55.4811H72.8675V50.5599H75.9609V51.3159H74.0538V52.5284H75.8126V53.2843H74.0538V54.7221H76.0232V55.4811ZM79.075 55.4811C78.9178 55.1816 78.9504 54.8467 78.9504 54.5265C78.9504 53.9394 79.0127 53.4415 78.1022 53.4415H77.7968V55.4811H76.6104V50.5599H78.7992C79.6089 50.5599 80.1249 51.0105 80.1249 51.8495C80.1249 52.4779 79.8431 52.9464 79.0721 53.0561V53.0709C79.33 53.0976 80.1012 53.1539 80.1012 54.0403C80.1012 54.3546 80.1249 55.2825 80.2347 55.487H79.075V55.4811ZM82.029 55.4811H80.8426V50.5599H82.029V55.4811ZM85.8579 55.4811L85.5434 54.3901H83.9271L83.6038 55.4811H82.4353L84.0042 50.557H85.5672L87.1064 55.4811H85.8579ZM90.4757 55.4811H87.5157V50.5599H88.7021V54.6658H90.4757V55.4811ZM96.1906 55.4811H95.0047V53.2843H93.6459V55.4811H92.46V50.5599H93.6459V52.5313H95.0047V50.5599H96.1906V55.4811ZM100.053 55.4811L99.7381 54.3901H98.1217L97.7978 55.4811H96.6294L98.199 50.557H99.762L101.301 55.4811H100.053ZM105.94 55.4811H104.377L102.828 51.8791H102.814V55.4811H101.707V50.5599H103.309L104.816 53.9692H104.83V50.5599H105.936V55.4811H105.94ZM108.737 55.4811H106.806V50.5599H108.784C110.337 50.5599 110.628 51.4611 110.628 52.9938C110.625 53.7497 110.762 55.4811 108.737 55.4811ZM114.386 55.4811H111.427V50.5599H112.613V54.6658H114.386V55.4811ZM115.935 55.4811H114.748V50.5599H115.935V55.4811ZM121.012 55.4811H119.449L117.904 51.8791H117.889V55.4811H116.783V50.5599H118.384L119.891 53.9692H119.905V50.5599H121.012V55.4811ZM125.62 52.0718H124.443C124.452 51.6153 124.367 51.2121 123.737 51.2121C122.998 51.2121 122.998 52.0777 122.998 53.0323C122.998 54.5739 123.171 54.8467 123.847 54.8467C124.043 54.8467 124.256 54.8052 124.435 54.7518V53.6608H123.791V52.9049H125.62V55.401C125.298 55.4544 124.491 55.5641 124.019 55.5641C122.026 55.5641 121.798 54.8467 121.798 52.979C121.798 51.7368 121.869 50.4769 123.809 50.4769C124.968 50.4769 125.692 51.0431 125.62 52.0718Z" fill="black"/>
<path d="M78.3215 51.3159H77.7966V52.6855H78.3215C78.7931 52.6855 78.9266 52.2764 78.9266 51.9621C78.9266 51.4938 78.6982 51.3159 78.3215 51.3159Z" fill="black"/>
<path d="M108.603 51.3159H107.989V54.7252H108.562C109.285 54.7252 109.425 54.2538 109.425 53.0205C109.425 52.1134 109.425 51.3159 108.603 51.3159Z" fill="black"/>
<path d="M84.704 51.5056L84.1643 53.6341H85.2943L84.7219 51.5056H84.704Z" fill="black"/>
<path d="M98.8982 51.5056L98.3553 53.6341H99.4851L98.9129 51.5056H98.8982Z" fill="black"/>
<path d="M66.7636 51.5056L66.2238 53.6341H67.3539L66.7814 51.5056H66.7636Z" fill="black"/>
</svg>
